# xmcd CD database file
#
# Track frame offsets:
#	150
#	22184
#	42806
#	63191
#	84005
#	103807
#	121614
#	140971
#	164183
#	183915
#
# Disc length: 2716 seconds
#
# Revision: 1
# Processed by: cddbd v1.4PL0 Copyright (c) Steve Scherf et al.
# Submitted via: NeoAudio 9.9.9
#
DISCID=840a9a0a
DTITLE=Fernandito Villalona - Confundido
DYEAR=1900
DGENRE=Merengue
TTITLE0=Confundido
TTITLE1=Soy Culpable
TTITLE2=Solo Tú
TTITLE3=Por el Amor de una Mujer
TTITLE4=Muchachita Mía
TTITLE5=Quítame la Pena
TTITLE6=Porqué eres Linda
TTITLE7=Retorno
TTITLE8=Confesiones
TTITLE9=Dejenme Vivir
EXTD=
EXTT0=
EXTT1=
EXTT2=
EXTT3=
EXTT4=
EXTT5=
EXTT6=
EXTT7=
EXTT8=
EXTT9=
PLAYORDER=
